<?xml version="1.0" encoding="UTF-8"?>
<svg id="Layer_2" data-name="Layer 2" xmlns="http://www.w3.org/2000/svg" viewBox="0 0 906 355">
  <defs>
    <style>
      .cls-1 {
        fill: #f55e12;
      }

      .cls-1, .cls-2 {
        stroke-width: 0px;
      }

      .cls-2 {
        fill: #04456f;
      }
    </style>
  </defs>
  <path class="cls-2" d="M118.51,217.37c-34.44,0-62.35-27.92-62.35-62.35s27.92-62.35,62.35-62.35c13.23,0,25.48,4.13,35.57,11.16l34.29-26.18c-18.49-16.7-42.99-26.88-69.86-26.88-57.58,0-104.25,46.67-104.25,104.25s46.67,104.25,104.25,104.25c29.02,0,55.27-11.86,74.17-31l-37.02-23.17c-10.38,7.71-23.23,12.28-37.15,12.28Z"/>
  <path class="cls-1" d="M188.37,77.65l-34.29,26.18c16.18,11.26,26.78,29.99,26.78,51.19s-9.91,38.71-25.2,50.07l37.02,23.17c18.59-18.83,30.08-44.69,30.08-73.25,0-30.7-13.27-58.3-34.39-77.37Z"/>
</svg>